<svg width="1909" height="1080" viewBox="0 0 1909 1080" fill="none" xmlns="http://www.w3.org/2000/svg">
<g opacity="0.3">
<path fill-rule="evenodd" clip-rule="evenodd" d="M1095.04 -473.203L1936.75 1655.38C1942.83 1669.62 1943.66 1685.45 1939.08 1700.2C1934.51 1714.95 1924.83 1727.72 1911.67 1736.34C1905.08 1739.96 1897.66 1741.91 1890.09 1742H1740.76C1729.76 1741.43 1719.22 1737.52 1710.63 1730.81C1702.05 1724.11 1695.85 1714.95 1692.93 1704.64L970.793 -117.117L248.074 1706.9C244.89 1716.66 238.719 1725.24 230.383 1731.52C222.047 1737.79 211.94 1741.44 201.409 1742H52.0823C37.0174 1740.42 23.1753 1733.22 13.4858 1721.92C3.79635 1710.61 -0.980116 1696.09 0.167729 1681.43C0.182839 1671.89 2.16682 1662.46 6.00138 1653.69C220.076 1114.18 611.475 -44.655 854.131 -483.959C859.487 -493.255 867.624 -500.757 877.464 -505.472C883.44 -508.39 890.025 -509.938 896.714 -510H1046.62C1058.01 -509.321 1068.87 -505.1 1077.59 -497.962C1086.31 -490.824 1092.43 -481.149 1095.04 -470.371M834.299 1027H1109.04C1122.81 1027 1136.01 1032.31 1145.75 1041.76C1155.48 1051.2 1160.95 1064.02 1160.95 1077.38V1344.02C1160.95 1357.39 1155.48 1370.2 1145.75 1379.65C1136.01 1389.1 1122.81 1394.41 1109.04 1394.41H834.299C820.531 1394.41 807.327 1389.1 797.591 1379.65C787.855 1370.2 782.385 1357.39 782.385 1344.02V1077.38C782.385 1064.02 787.855 1051.2 797.591 1041.76C807.327 1032.31 820.531 1027 834.299 1027Z" fill="#23E5DC"/>
</g>
</svg>
