<svg width="28" height="30" viewBox="0 0 28 30" fill="none" xmlns="http://www.w3.org/2000/svg">
<path d="M0.967636 24.274H15.2352C15.6808 22.147 17.5137 20.548 19.7032 20.548C21.8928 20.548 23.7257 22.147 24.1713 24.274H27.0324C27.289 24.274 27.5351 24.3794 27.7166 24.5669C27.8981 24.7544 28 25.0088 28 25.274C28 25.5392 27.8981 25.7936 27.7166 25.9811C27.5351 26.1686 27.289 26.274 27.0324 26.274H24.1713C23.7257 28.401 21.8928 30 19.7032 30C17.5137 30 15.6808 28.401 15.2352 26.274H0.967636C0.711003 26.274 0.464881 26.1686 0.283414 25.9811C0.101947 25.7936 0 25.5392 0 25.274C0 25.0088 0.101947 24.7544 0.283414 24.5669C0.464881 24.3794 0.711003 24.274 0.967636 24.274ZM19.7032 28C21.1578 28 22.341 26.777 22.341 25.274C22.341 23.771 21.1576 22.548 19.7032 22.548C18.2489 22.548 17.0655 23.771 17.0655 25.274C17.0655 26.777 18.2486 28 19.7032 28ZM27.0324 16H12.7648C12.3192 18.127 10.4863 19.726 8.29675 19.726C6.10723 19.726 4.27429 18.127 3.82869 16H0.967636C0.711003 16 0.464881 15.8946 0.283414 15.7071C0.101947 15.5196 0 15.2652 0 15C0 14.7348 0.101947 14.4804 0.283414 14.2929C0.464881 14.1054 0.711003 14 0.967636 14H3.82869C4.27429 11.873 6.10723 10.274 8.29675 10.274C10.4863 10.274 12.3192 11.873 12.7648 14H27.0324C27.289 14 27.5351 14.1054 27.7166 14.2929C27.8981 14.4804 28 14.7348 28 15C28 15.2652 27.8981 15.5196 27.7166 15.7071C27.5351 15.8946 27.289 16 27.0324 16ZM8.29675 12.274C6.84215 12.274 5.65898 13.497 5.65898 15C5.65898 16.503 6.8424 17.726 8.29675 17.726C9.75111 17.726 10.9345 16.5033 10.9345 15C10.9345 13.4967 9.75135 12.274 8.29675 12.274ZM27.0324 5.726H24.1713C23.7257 7.853 21.8928 9.452 19.7032 9.452C17.5137 9.452 15.6808 7.853 15.2352 5.726H0.967636C0.711003 5.726 0.464881 5.62064 0.283414 5.43311C0.101947 5.24557 0 4.99122 0 4.726C0 4.46078 0.101947 4.20643 0.283414 4.01889C0.464881 3.83136 0.711003 3.726 0.967636 3.726H15.2352C15.6808 1.599 17.5137 0 19.7032 0C21.8928 0 23.7257 1.599 24.1713 3.726H27.0324C27.289 3.726 27.5351 3.83136 27.7166 4.01889C27.8981 4.20643 28 4.46078 28 4.726C28 4.99122 27.8981 5.24557 27.7166 5.43311C27.5351 5.62064 27.289 5.726 27.0324 5.726ZM19.7032 2C18.2486 2 17.0655 3.223 17.0655 4.726C17.0655 6.229 18.2489 7.452 19.7032 7.452C21.1576 7.452 22.341 6.229 22.341 4.726C22.341 3.223 21.1578 2 19.7032 2Z" fill="#23E5DC"/>
</svg>
