<svg width="160" height="23" viewBox="0 0 160 23" fill="none" xmlns="http://www.w3.org/2000/svg">
<path fill-rule="evenodd" clip-rule="evenodd" d="M156.537 19.6104C154.603 21.4886 152.06 22.6571 149.339 22.9169C146.619 23.1766 143.89 22.5115 141.618 21.0348C139.346 19.5582 137.67 17.3613 136.877 14.8186C136.084 12.2758 136.223 9.54438 137.269 7.0897C138.315 4.63502 140.205 2.60891 142.615 1.35656C145.026 0.10421 147.809 -0.296908 150.49 0.221533C153.171 0.739974 155.584 2.14591 157.318 4.19981C159.052 6.25371 160 8.82852 160 11.4856C160.002 12.9948 159.697 14.4896 159.102 15.8839C158.508 17.2782 157.636 18.5446 156.537 19.6104ZM154.814 5.03543C153.278 3.54313 151.258 2.61465 149.096 2.4082C146.935 2.20175 144.767 2.73011 142.962 3.90324C141.157 5.07637 139.826 6.82168 139.196 8.8418C138.566 10.8619 138.676 13.0318 139.508 14.9818C140.339 16.9318 141.841 18.5412 143.756 19.5358C145.672 20.5303 147.882 20.8486 150.012 20.4362C152.142 20.0238 154.058 18.9064 155.436 17.2743C156.813 15.6422 157.565 13.5964 157.564 11.4856C157.566 10.2873 157.323 9.10065 156.851 7.99372C156.379 6.88679 155.687 5.88144 154.814 5.03543Z" fill="#2D3748"/>
<path fill-rule="evenodd" clip-rule="evenodd" d="M108.134 3.5245e-05H109.512C109.652 3.5245e-05 109.787 0.0541676 109.886 0.150549C109.985 0.24693 110.041 0.377656 110.041 0.51396V22.4572C110.041 22.5935 109.985 22.7242 109.886 22.8206C109.787 22.917 109.652 22.9711 109.512 22.9711H108.134C108.064 22.9719 107.995 22.9591 107.931 22.9336C107.866 22.908 107.808 22.8702 107.758 22.8223C107.709 22.7745 107.67 22.7175 107.644 22.6548C107.618 22.5921 107.605 22.5249 107.605 22.4572V0.51396C107.605 0.377656 107.661 0.24693 107.76 0.150549C107.859 0.0541676 107.994 3.5245e-05 108.134 3.5245e-05ZM111.906 11.1449L123.193 0.173264C123.242 0.125306 123.3 0.0873351 123.365 0.0615553C123.429 0.0357756 123.498 0.0226996 123.567 0.0231207H124.898C125.038 0.0231207 125.173 0.0772707 125.272 0.173652C125.371 0.270033 125.427 0.400759 125.427 0.537063V1.11452C125.427 1.18209 125.414 1.24907 125.387 1.31154C125.361 1.374 125.322 1.43071 125.272 1.47831L114.971 11.4914L125.266 21.4986C125.316 21.5462 125.355 21.6029 125.381 21.6654C125.408 21.7279 125.421 21.7948 125.421 21.8624V22.4399C125.421 22.5762 125.365 22.7069 125.266 22.8033C125.167 22.8997 125.032 22.9538 124.892 22.9538H123.561C123.492 22.9542 123.423 22.9412 123.359 22.9154C123.294 22.8896 123.236 22.8516 123.187 22.8037L111.9 11.8321C111.851 11.7848 111.812 11.7286 111.786 11.6666C111.759 11.6047 111.746 11.5383 111.746 11.4711C111.746 11.404 111.759 11.3376 111.786 11.2756C111.812 11.2137 111.851 11.1575 111.9 11.1102" fill="#2D3748"/>
<path fill-rule="evenodd" clip-rule="evenodd" d="M82.1802 3.32127e-05H93.467C93.5367 -0.00074064 93.6058 0.0120155 93.6703 0.0375691C93.7348 0.0631227 93.7934 0.100959 93.8426 0.148837C93.8919 0.196716 93.9308 0.253672 93.9571 0.316374C93.9834 0.379077 93.9965 0.446252 93.9957 0.513958V1.85943C93.9957 1.99574 93.94 2.12645 93.8409 2.22283C93.7417 2.31921 93.6072 2.37336 93.467 2.37336H82.1802C79.6909 2.37336 77.3035 3.33461 75.5433 5.04565C73.7831 6.75669 72.7943 9.07734 72.7943 11.4971C72.7943 13.9169 73.7831 16.2376 75.5433 17.9486C77.3035 19.6596 79.6909 20.6209 82.1802 20.6209H93.467C93.5367 20.6201 93.6058 20.6329 93.6703 20.6584C93.7348 20.684 93.7934 20.7218 93.8426 20.7697C93.8919 20.8176 93.9308 20.8745 93.9571 20.9372C93.9834 20.9999 93.9965 21.0671 93.9957 21.1348V22.4803C93.9957 22.5475 93.982 22.6141 93.9554 22.6761C93.9287 22.7381 93.8897 22.7944 93.8405 22.8417C93.7913 22.8889 93.733 22.9262 93.6689 22.9514C93.6048 22.9766 93.5361 22.9892 93.467 22.9885H82.1802C79.0457 22.9885 76.0396 21.7781 73.8232 19.6236C71.6068 17.4691 70.3616 14.5469 70.3616 11.5C70.3616 8.45308 71.6068 5.53097 73.8232 3.37647C76.0396 1.22197 79.0457 0.0115759 82.1802 0.0115759" fill="#2D3748"/>
<path fill-rule="evenodd" clip-rule="evenodd" d="M49.3651 0.404242L57.9372 22.1165C57.9991 22.2617 58.0075 22.4232 57.9609 22.5736C57.9144 22.7241 57.8157 22.8544 57.6817 22.9423C57.6147 22.9792 57.5391 22.9991 57.462 23H55.9412C55.8291 22.9942 55.7218 22.9543 55.6343 22.8859C55.5469 22.8175 55.4838 22.7241 55.4541 22.6189L48.0998 4.03643L40.7396 22.642C40.7072 22.7415 40.6443 22.8291 40.5594 22.893C40.4745 22.957 40.3716 22.9943 40.2644 23H38.7436C38.5902 22.9839 38.4492 22.9105 38.3505 22.7951C38.2519 22.6798 38.2032 22.5317 38.2149 22.3821C38.2151 22.2849 38.2353 22.1887 38.2743 22.0992C40.4545 16.596 44.4405 4.77556 46.9117 0.294525C46.9663 0.1997 47.0491 0.123186 47.1493 0.0750894C47.2102 0.0453249 47.2773 0.0295289 47.3454 0.0289009H48.8721C48.988 0.035831 49.0986 0.0788873 49.1874 0.151694C49.2762 0.224501 49.3385 0.323192 49.3651 0.433125M46.7097 15.7068H49.5077C49.6479 15.7068 49.7824 15.7609 49.8815 15.8573C49.9807 15.9537 50.0364 16.0844 50.0364 16.2207V18.9405C50.0364 19.0768 49.9807 19.2075 49.8815 19.3039C49.7824 19.4003 49.6479 19.4544 49.5077 19.4544H46.7097C46.5695 19.4544 46.4351 19.4003 46.3359 19.3039C46.2367 19.2075 46.181 19.0768 46.181 18.9405V16.2207C46.181 16.0844 46.2367 15.9537 46.3359 15.8573C46.4351 15.7609 46.5695 15.7068 46.7097 15.7068Z" fill="#23E5DC"/>
<path fill-rule="evenodd" clip-rule="evenodd" d="M0.528699 2.74904e-05H1.90689C1.9764 -0.000393578 2.04531 0.0126648 2.10957 0.0384445C2.17383 0.0642243 2.23216 0.102196 2.28114 0.150153L11.8215 9.41251L21.3618 0.173256C21.4108 0.125299 21.4691 0.0873273 21.5334 0.0615476C21.5977 0.0357678 21.6666 0.0226919 21.7361 0.0231129H23.1143C23.1839 0.0223391 23.253 0.0351129 23.3175 0.0606665C23.382 0.08622 23.4406 0.124039 23.4899 0.171917C23.5392 0.219795 23.5781 0.276769 23.6044 0.339472C23.6306 0.402175 23.6438 0.46935 23.643 0.537055V22.4803C23.643 22.5475 23.6293 22.6141 23.6026 22.6761C23.576 22.7381 23.5369 22.7944 23.4878 22.8417C23.4386 22.8889 23.3803 22.9262 23.3161 22.9514C23.252 22.9766 23.1834 22.9892 23.1143 22.9884H21.7361C21.5969 22.9885 21.4633 22.9351 21.3643 22.84C21.2653 22.7448 21.209 22.6156 21.2074 22.4803V3.63798L12.1957 12.398C12.1471 12.4456 12.0893 12.4834 12.0256 12.5093C11.9619 12.5351 11.8935 12.5484 11.8245 12.5484C11.7554 12.5484 11.6871 12.5351 11.6233 12.5093C11.5596 12.4834 11.5018 12.4456 11.4532 12.398L2.43559 3.63798V22.4572C2.43402 22.5925 2.37763 22.7217 2.27865 22.8169C2.17966 22.912 2.04608 22.9654 1.90689 22.9653H0.528699C0.389503 22.9654 0.255922 22.912 0.156941 22.8169C0.0579596 22.7217 0.00156401 22.5925 0 22.4572V0.513952C0 0.377648 0.0557058 0.246922 0.154856 0.150541C0.254007 0.0541598 0.388479 2.74904e-05 0.528699 2.74904e-05Z" fill="#2D3748"/>
</svg>
