<svg width="19" height="8" viewBox="0 0 19 8" fill="none" xmlns="http://www.w3.org/2000/svg">
<path d="M1.71067 7.99927L2.20093 7.99927L2.20012 6.25407C2.20015 6.1865 2.21493 6.1196 2.24361 6.05719C2.27229 5.99478 2.31433 5.93807 2.3673 5.89031C2.42027 5.84255 2.48316 5.80468 2.55236 5.77884C2.62156 5.75301 2.69572 5.73972 2.77061 5.73975C2.84551 5.73977 2.91966 5.7531 2.98884 5.77898C3.05802 5.80486 3.12087 5.84278 3.17381 5.89057C3.22675 5.93836 3.26873 5.9951 3.29737 6.05753C3.32601 6.11996 3.34073 6.18687 3.3407 6.25443L3.34111 7.99927L4.89252 7.99927L4.89252 5.11121C4.89121 5.04292 4.90498 4.97507 4.93304 4.91163C4.9611 4.84819 5.00288 4.79043 5.05595 4.74171C5.10902 4.69299 5.17231 4.6543 5.24213 4.62789C5.31195 4.60148 5.3869 4.58787 5.46261 4.58787C5.53832 4.58787 5.61327 4.60148 5.68309 4.62789C5.75292 4.6543 5.8162 4.69299 5.86927 4.74171C5.92234 4.79043 5.96412 4.84819 5.99218 4.91163C6.02024 4.97507 6.03402 5.04292 6.0327 5.11121L6.0327 7.99927L7.58411 7.99927L7.58411 6.25334C7.58285 6.18505 7.59668 6.11721 7.62479 6.05379C7.6529 5.99037 7.69473 5.93263 7.74783 5.88395C7.80094 5.83527 7.86426 5.79662 7.9341 5.77025C8.00394 5.74388 8.0789 5.73033 8.15461 5.73037C8.23032 5.73042 8.30526 5.74407 8.37506 5.77053C8.44486 5.79699 8.50812 5.83572 8.56115 5.88447C8.61418 5.93322 8.65592 5.99101 8.68393 6.05447C8.71194 6.11792 8.72566 6.18578 8.72429 6.25407L8.72429 8L10.2757 7.99927L10.2757 5.11121C10.2744 5.04292 10.2882 4.97507 10.3162 4.91163C10.3443 4.84819 10.3861 4.79043 10.4391 4.74171C10.4922 4.693 10.5555 4.6543 10.6253 4.62789C10.6951 4.60148 10.7701 4.58787 10.8458 4.58787C10.9215 4.58787 10.9965 4.60148 11.0663 4.62789C11.1361 4.6543 11.1994 4.693 11.2525 4.74171C11.3055 4.79043 11.3473 4.84819 11.3754 4.91163C11.4034 4.97507 11.4172 5.04292 11.4159 5.11121L11.4159 7.99927L12.9677 7.99964L12.9673 6.25407C12.966 6.18578 12.9798 6.11793 13.0078 6.05449C13.0359 5.99105 13.0777 5.93329 13.1307 5.88457C13.1838 5.83585 13.2471 5.79716 13.3169 5.77075C13.3867 5.74433 13.4617 5.73073 13.5374 5.73073C13.6131 5.73073 13.6881 5.74433 13.7579 5.77075C13.8277 5.79716 13.891 5.83585 13.9441 5.88457C13.9971 5.93329 14.0389 5.99105 14.067 6.05449C14.095 6.11793 14.1088 6.18578 14.1075 6.25407L14.1083 7.99927L15.6589 7.99927L15.6589 5.11121C15.6589 4.97476 15.7191 4.84391 15.8261 4.74746C15.9331 4.651 16.0781 4.59684 16.2294 4.59689C16.3806 4.59694 16.5257 4.65119 16.6326 4.74771C16.7395 4.84424 16.7995 4.97512 16.7995 5.11158L16.7995 7.99964L17.2893 7.99927C17.514 7.99929 17.7364 7.95938 17.944 7.88183C18.1516 7.80428 18.3401 7.6906 18.499 7.54728C18.6579 7.40397 18.7839 7.23382 18.8698 7.04657C18.9558 6.85932 19 6.65862 19 6.45594L19 1.54333C19 1.34065 18.9558 1.13996 18.8698 0.952703C18.7839 0.76545 18.6579 0.595308 18.499 0.451993C18.3401 0.308678 18.1516 0.194998 17.944 0.117444C17.7364 0.0398905 17.514 -1.72302e-05 17.2893 -6.92371e-08L1.71067 -6.63481e-07C1.48602 -1.78441e-05 1.26356 0.0398901 1.056 0.117444C0.848446 0.194997 0.659857 0.308679 0.501003 0.451994C0.342148 0.595309 0.216141 0.765449 0.130178 0.952702C0.0442161 1.13996 -1.91321e-05 1.34065 -6.74611e-08 1.54333L-2.82198e-07 6.45594C-1.93645e-05 6.65862 0.0442159 6.85932 0.130178 7.04657C0.21614 7.23382 0.342148 7.40396 0.501003 7.54728C0.659856 7.69059 0.848446 7.80428 1.056 7.88183C1.26356 7.95938 1.48601 7.99929 1.71067 7.99927Z" fill="#23E5DC"/>
</svg>
