<svg width="20" height="37" viewBox="0 0 20 37" fill="none" xmlns="http://www.w3.org/2000/svg">
<path fill-rule="evenodd" clip-rule="evenodd" d="M19.0445 35.5L19.0445 1.5L17.9405 2.60399L17.9405 35.5H19.0445Z" fill="url(#paint0_linear_442_18)" stroke="#373435" stroke-width="0.287469" stroke-miterlimit="22.9256"/>
<path fill-rule="evenodd" clip-rule="evenodd" d="M19.0447 1.5H1.03774L2.14174 2.60399H17.9407L19.0447 1.5Z" fill="url(#paint1_linear_442_18)" stroke="#373435" stroke-width="0.287469" stroke-miterlimit="22.9256"/>
<path fill-rule="evenodd" clip-rule="evenodd" d="M0.999886 35.5V1.49999L2.10388 2.60398V35.5H0.999886Z" fill="url(#paint2_linear_442_18)" stroke="#373435" stroke-width="0.287469" stroke-miterlimit="22.9256"/>
<path d="M15.8555 36.8369L2.36719 35.252V2.80371L15.8555 0.175781V36.8369Z" fill="#DAE0E8" stroke="#373435" stroke-width="0.29"/>
<path d="M2 35.5L15.5 18.5L2 2.5" stroke="black" stroke-width="0.5" stroke-linejoin="round" stroke-dasharray="2 2"/>
<mask id="path-6-inside-1_442_18" fill="white">
<path d="M14 4.14601L14.7329 4V32.4055L14 32.2837V4.14601Z"/>
</mask>
<path d="M14 4.14601L13.8046 3.16528L13 3.32557V4.14601H14ZM14.7329 4H15.7329V2.78114L14.5376 3.01927L14.7329 4ZM14.7329 32.4055L14.569 33.392L15.7329 33.5854V32.4055H14.7329ZM14 32.2837H13V33.1312L13.8361 33.2701L14 32.2837ZM14 4.14601L14.1954 5.12674L14.9283 4.98073L14.7329 4L14.5376 3.01927L13.8046 3.16528L14 4.14601ZM14.7329 4H13.7329V32.4055H14.7329H15.7329V4H14.7329ZM14.7329 32.4055L14.8969 31.419L14.1639 31.2972L14 32.2837L13.8361 33.2701L14.569 33.392L14.7329 32.4055ZM14 32.2837H15V4.14601H14H13V32.2837H14Z" fill="#373435" mask="url(#path-6-inside-1_442_18)"/>
<defs>
<linearGradient id="paint0_linear_442_18" x1="18.108" y1="24.6563" x2="19.1896" y2="24.6563" gradientUnits="userSpaceOnUse">
<stop stop-color="#DBE1E9"/>
<stop offset="0.85098" stop-color="#DBE1E9"/>
<stop offset="0.941176" stop-color="#849AAC"/>
<stop offset="1" stop-color="#232729"/>
</linearGradient>
<linearGradient id="paint1_linear_442_18" x1="35.9532" y1="1.49945" x2="35.9532" y2="2.60399" gradientUnits="userSpaceOnUse">
<stop stop-color="#475A65"/>
<stop offset="0.0509804" stop-color="#9EAFC1"/>
<stop offset="0.0705882" stop-color="#B1C0D0"/>
<stop offset="0.0901961" stop-color="#BAC6D5"/>
<stop offset="0.101961" stop-color="#DBE1E9"/>
<stop offset="0.85098" stop-color="#DBE1E9"/>
<stop offset="0.870588" stop-color="#DBE1E9"/>
<stop offset="0.941176" stop-color="#849AAC"/>
<stop offset="1" stop-color="#42555F"/>
</linearGradient>
<linearGradient id="paint2_linear_442_18" x1="-3.08168" y1="2.60398" x2="-4.1636" y2="2.60398" gradientUnits="userSpaceOnUse">
<stop stop-color="#DBE1E9"/>
<stop offset="0.85098" stop-color="#DBE1E9"/>
<stop offset="0.960784" stop-color="#AABACA"/>
<stop offset="1" stop-color="#667D8C"/>
</linearGradient>
</defs>
</svg>
