<svg width="30" height="30" viewBox="0 0 30 30" fill="none" xmlns="http://www.w3.org/2000/svg">
<path d="M20 30C18.6212 30 17.5001 28.8787 17.5001 27.4999V4.99992C17.5001 3.93129 18.1801 2.9775 19.1925 2.62617L26.7026 0.122461C28.3826 -0.392578 30 0.853711 30 2.50008V25.0001C30 26.0676 29.3201 27.02 28.3089 27.3724L20.7963 29.8775C20.5225 29.9625 20.2689 30 20 30ZM27.5 1.875C27.4187 1.875 27.35 1.88508 27.2764 1.90752L19.7976 4.40115C19.5525 4.48629 19.3751 4.73373 19.3751 4.99992V27.4999C19.3751 27.9263 19.8374 28.2138 20.2238 28.0925L27.7025 25.5988C27.9463 25.5137 28.125 25.2663 28.125 25.0001V2.50008C28.125 2.15631 27.8451 1.875 27.5 1.875Z" fill="#23E5DC"/>
<path d="M10.9376 6.25008C10.4201 6.25008 10.0001 5.83008 10.0001 5.31258V3.43758C10.0001 1.54131 11.5411 0 13.4375 0H27.5C28.0175 0 28.4375 0.42 28.4375 0.9375C28.4375 1.455 28.0175 1.875 27.5 1.875H13.4375C12.5761 1.875 11.8751 2.57631 11.8751 3.43758V5.31258C11.8751 5.83008 11.4551 6.25008 10.9376 6.25008ZM18.4376 26.25H13.4375C11.5412 26.25 10.0001 24.7087 10.0001 22.8124V20.9374C10.0001 20.4199 10.4201 19.9999 10.9376 19.9999C11.4551 19.9999 11.8751 20.4199 11.8751 20.9374V22.8124C11.8751 23.6737 12.5762 24.375 13.4375 24.375H18.4376C18.9551 24.375 19.3751 24.795 19.3751 25.3125C19.3751 25.83 18.9551 26.25 18.4376 26.25Z" fill="#23E5DC"/>
<path d="M12.8126 14.0625H0.9375C0.42 14.0625 0 13.6425 0 13.125C0 12.6075 0.42 12.1875 0.9375 12.1875H12.8126C13.3301 12.1875 13.7501 12.6075 13.7501 13.125C13.7501 13.6425 13.3301 14.0625 12.8126 14.0625Z" fill="#2D3748"/>
<path d="M8.12508 18.75C8.00194 18.7503 7.87997 18.7261 7.76622 18.6789C7.65248 18.6318 7.54923 18.5625 7.46244 18.4751C7.09623 18.1087 7.09623 17.515 7.46244 17.1487L11.4876 13.1238L7.46244 9.10013C7.09623 8.73368 7.09623 8.13995 7.46244 7.77374C7.82865 7.40753 8.42238 7.40753 8.78883 7.77374L13.4763 12.4612C13.8425 12.8275 13.8425 13.4212 13.4763 13.7876L8.78883 18.4751C8.70174 18.5624 8.59828 18.6316 8.48437 18.6788C8.37047 18.7259 8.24836 18.7501 8.12508 18.75Z" fill="#2D3748"/>
</svg>
