<svg width="20" height="36" viewBox="0 0 20 36" fill="none" xmlns="http://www.w3.org/2000/svg">
<path fill-rule="evenodd" clip-rule="evenodd" d="M1.00025 34.5L1.00024 0.5L2.10423 1.604L2.10425 34.5H1.00025Z" fill="url(#paint0_linear_112_294)" stroke="#373435" stroke-width="0.287469" stroke-miterlimit="22.9256"/>
<path fill-rule="evenodd" clip-rule="evenodd" d="M1.00016 0.5H19.0071L17.9031 1.604H2.10416L1.00016 0.5Z" fill="url(#paint1_linear_112_294)" stroke="#373435" stroke-width="0.287469" stroke-miterlimit="22.9256"/>
<path fill-rule="evenodd" clip-rule="evenodd" d="M19.0449 34.5V0.5L17.9409 1.604V34.5H19.0449Z" fill="url(#paint2_linear_112_294)" stroke="#373435" stroke-width="0.287469" stroke-miterlimit="22.9256"/>
<path d="M3.14539 35.3428L17.6776 34.2471V1.81445L3.14539 0.162109V35.3428Z" fill="#DAE0E8" stroke="#373435" stroke-width="0.29"/>
<path d="M18.0448 34.5L4.0448 17.58L18.0448 1.5" stroke="black" stroke-width="0.5" stroke-linejoin="round" stroke-dasharray="2 2"/>
<rect x="-0.183236" y="0.183236" width="0.366472" height="26.386" transform="matrix(-1 0 0 1 5.67833 4.53125)" stroke="#373435" stroke-width="0.366472"/>
<defs>
<linearGradient id="paint0_linear_112_294" x1="1.93672" y1="23.6563" x2="0.85518" y2="23.6563" gradientUnits="userSpaceOnUse">
<stop stop-color="#DBE1E9"/>
<stop offset="0.85098" stop-color="#DBE1E9"/>
<stop offset="0.941176" stop-color="#849AAC"/>
<stop offset="1" stop-color="#232729"/>
</linearGradient>
<linearGradient id="paint1_linear_112_294" x1="-15.9084" y1="0.499451" x2="-15.9084" y2="1.604" gradientUnits="userSpaceOnUse">
<stop stop-color="#475A65"/>
<stop offset="0.0509804" stop-color="#9EAFC1"/>
<stop offset="0.0705882" stop-color="#B1C0D0"/>
<stop offset="0.0901961" stop-color="#BAC6D5"/>
<stop offset="0.101961" stop-color="#DBE1E9"/>
<stop offset="0.85098" stop-color="#DBE1E9"/>
<stop offset="0.870588" stop-color="#DBE1E9"/>
<stop offset="0.941176" stop-color="#849AAC"/>
<stop offset="1" stop-color="#42555F"/>
</linearGradient>
<linearGradient id="paint2_linear_112_294" x1="23.1265" y1="1.604" x2="24.2084" y2="1.604" gradientUnits="userSpaceOnUse">
<stop stop-color="#DBE1E9"/>
<stop offset="0.85098" stop-color="#DBE1E9"/>
<stop offset="0.960784" stop-color="#AABACA"/>
<stop offset="1" stop-color="#667D8C"/>
</linearGradient>
</defs>
</svg>
