<svg width="20" height="36" viewBox="0 0 20 36" fill="none" xmlns="http://www.w3.org/2000/svg">
<path d="M5.14465 4.12607V33.0411L17.6779 34.7149V2.35068L5.14465 4.12607Z" fill="#DAE0E8" stroke="#373435" stroke-width="0.29"/>
<path fill-rule="evenodd" clip-rule="evenodd" d="M1.00043 35L1.00042 0.999996L2.10442 2.10399L2.10443 35H1.00043Z" fill="url(#paint0_linear_442_10)" stroke="#373435" stroke-width="0.287469" stroke-miterlimit="22.9256"/>
<path fill-rule="evenodd" clip-rule="evenodd" d="M1.00027 0.999996H19.0072L17.9032 2.10399H2.10427L1.00027 0.999996Z" fill="url(#paint1_linear_442_10)" stroke="#373435" stroke-width="0.287469" stroke-miterlimit="22.9256"/>
<path fill-rule="evenodd" clip-rule="evenodd" d="M19.045 35V0.999985L17.941 2.10398V35H19.045Z" fill="url(#paint2_linear_442_10)" stroke="#373435" stroke-width="0.287469" stroke-miterlimit="22.9256"/>
<path d="M18.0449 35L5.5 18.5L18.0449 2" stroke="black" stroke-width="0.5" stroke-linejoin="round" stroke-dasharray="2 2"/>
<mask id="path-6-inside-1_442_10" fill="white">
<path d="M7.00008 5.91111L6.26713 5.99999V31.2525L7.00008 31.3389V5.91111Z"/>
</mask>
<path d="M7.00008 5.91111L6.87969 4.91838L8.00008 4.78252V5.91111H7.00008ZM6.26713 5.99999H5.26713V5.11393L6.14675 5.00727L6.26713 5.99999ZM6.26713 31.2525L6.15008 32.2456L5.26713 32.1415V31.2525H6.26713ZM7.00008 31.3389H8.00008V32.4636L6.88303 32.332L7.00008 31.3389ZM7.00008 5.91111L7.12046 6.90384L6.38752 6.99272L6.26713 5.99999L6.14675 5.00727L6.87969 4.91838L7.00008 5.91111ZM6.26713 5.99999H7.26713V31.2525H6.26713H5.26713V5.99999H6.26713ZM6.26713 31.2525L6.38418 30.2593L7.11712 30.3457L7.00008 31.3389L6.88303 32.332L6.15008 32.2456L6.26713 31.2525ZM7.00008 31.3389H6.00008V5.91111H7.00008H8.00008V31.3389H7.00008Z" fill="#373435" mask="url(#path-6-inside-1_442_10)"/>
<defs>
<linearGradient id="paint0_linear_442_10" x1="1.93691" y1="24.1563" x2="0.855363" y2="24.1563" gradientUnits="userSpaceOnUse">
<stop stop-color="#DBE1E9"/>
<stop offset="0.85098" stop-color="#DBE1E9"/>
<stop offset="0.941176" stop-color="#849AAC"/>
<stop offset="1" stop-color="#232729"/>
</linearGradient>
<linearGradient id="paint1_linear_442_10" x1="-15.9083" y1="0.999447" x2="-15.9083" y2="2.10399" gradientUnits="userSpaceOnUse">
<stop stop-color="#475A65"/>
<stop offset="0.0509804" stop-color="#9EAFC1"/>
<stop offset="0.0705882" stop-color="#B1C0D0"/>
<stop offset="0.0901961" stop-color="#BAC6D5"/>
<stop offset="0.101961" stop-color="#DBE1E9"/>
<stop offset="0.85098" stop-color="#DBE1E9"/>
<stop offset="0.870588" stop-color="#DBE1E9"/>
<stop offset="0.941176" stop-color="#849AAC"/>
<stop offset="1" stop-color="#42555F"/>
</linearGradient>
<linearGradient id="paint2_linear_442_10" x1="23.1266" y1="2.10398" x2="24.2085" y2="2.10398" gradientUnits="userSpaceOnUse">
<stop stop-color="#DBE1E9"/>
<stop offset="0.85098" stop-color="#DBE1E9"/>
<stop offset="0.960784" stop-color="#AABACA"/>
<stop offset="1" stop-color="#667D8C"/>
</linearGradient>
</defs>
</svg>
