<svg width="30" height="30" viewBox="0 0 30 30" fill="none" xmlns="http://www.w3.org/2000/svg">
<path d="M12.6724 0C5.68483 0 0 5.68482 0 12.6724C0 19.66 5.68483 25.3448 12.6724 25.3448C19.66 25.3448 25.3449 19.66 25.3449 12.6724C25.3449 5.68482 19.66 0 12.6724 0ZM12.6724 23.1281C6.90703 23.1281 2.21678 18.4378 2.21678 12.6724C2.21678 6.90703 6.90703 2.21678 12.6724 2.21678C18.4375 2.21678 23.1281 6.90703 23.1281 12.6724C23.1281 18.4378 18.4378 23.1281 12.6724 23.1281Z" fill="#23E5DC"/>
<path d="M29.6753 28.108L21.621 20.0538C21.188 19.6208 20.4868 19.6208 20.0538 20.0538C19.6208 20.4865 19.6208 21.1884 20.0538 21.6211L28.108 29.6753C28.2108 29.7784 28.3329 29.8601 28.4674 29.9159C28.6019 29.9716 28.7461 30.0002 28.8917 30C29.1754 30 29.4588 29.8918 29.6753 29.6753C30.1082 29.2426 30.1082 28.5407 29.6753 28.108Z" fill="#23E5DC"/>
<path d="M8.23181 6.77048C7.77929 6.3146 7.04511 6.3146 6.59258 6.77048C4.91242 8.46171 4.08661 10.8177 4.3266 13.2347C4.38648 13.8369 4.89042 14.2857 5.47893 14.2857C5.5176 14.2857 5.55658 14.2837 5.59525 14.2799C6.23248 14.2157 6.69732 13.6435 6.63358 13.0025C6.46279 11.2848 7.04554 9.61459 8.23181 8.42044C8.6847 7.965 8.6847 7.22592 8.23181 6.77048Z" fill="#2D3748"/>
</svg>
