<svg width="9" height="18" viewBox="0 0 9 18" fill="none" xmlns="http://www.w3.org/2000/svg">
<path d="M8.99918 16.3794L8.99918 15.9149L7.03583 15.9157C6.95982 15.9156 6.88456 15.9016 6.81434 15.8745C6.74412 15.8473 6.68033 15.8075 6.6266 15.7573C6.57287 15.7071 6.53026 15.6475 6.5012 15.582C6.47213 15.5164 6.45719 15.4462 6.45722 15.3752C6.45724 15.3043 6.47224 15.234 6.50135 15.1685C6.53047 15.1029 6.57312 15.0434 6.62689 14.9932C6.68066 14.9431 6.74448 14.9033 6.81472 14.8762C6.88495 14.849 6.96023 14.8351 7.03624 14.8351L8.99918 14.8347V13.365L5.75011 13.365C5.67328 13.3662 5.59696 13.3532 5.52559 13.3266C5.45422 13.3 5.38923 13.2604 5.33443 13.2102C5.27962 13.1599 5.23609 13.0999 5.20638 13.0338C5.17666 12.9676 5.16136 12.8966 5.16136 12.8249C5.16136 12.7532 5.17666 12.6822 5.20638 12.616C5.23609 12.5499 5.27962 12.4899 5.33443 12.4396C5.38923 12.3894 5.45422 12.3498 5.52559 12.3232C5.59696 12.2966 5.67328 12.2836 5.75011 12.2848L8.99918 12.2848V10.815H7.03501C6.95818 10.8162 6.88186 10.8031 6.81051 10.7765C6.73916 10.7499 6.67421 10.7103 6.61944 10.6599C6.56468 10.6096 6.52119 10.5496 6.49153 10.4835C6.46187 10.4173 6.44662 10.3463 6.44667 10.2746C6.44673 10.2029 6.46208 10.1319 6.49185 10.0657C6.52161 9.9996 6.56519 9.93967 6.62003 9.88943C6.67487 9.83919 6.73988 9.79965 6.81127 9.77312C6.88266 9.74658 6.959 9.73358 7.03583 9.73488H9L8.99918 8.26512H5.75011C5.67328 8.26637 5.59696 8.25332 5.52559 8.22673C5.45422 8.20015 5.38923 8.16057 5.33443 8.11029C5.27962 8.06002 5.23609 8.00006 5.20638 7.93391C5.17666 7.86777 5.16136 7.79676 5.16136 7.72503C5.16136 7.65331 5.17666 7.5823 5.20638 7.51616C5.23609 7.45001 5.27962 7.39005 5.33443 7.33978C5.38923 7.2895 5.45422 7.24992 5.52559 7.22333C5.59696 7.19675 5.67328 7.1837 5.75011 7.18495H8.99918L8.99959 5.71481L7.03583 5.71519C6.959 5.71643 6.88267 5.70339 6.8113 5.67681C6.73993 5.65022 6.67495 5.61064 6.62014 5.56036C6.56534 5.51009 6.5218 5.45013 6.49209 5.38398C6.46238 5.31784 6.44707 5.24683 6.44707 5.17511C6.44707 5.10338 6.46238 5.03237 6.49209 4.96623C6.5218 4.90008 6.56533 4.84012 6.62014 4.78985C6.67495 4.73957 6.73993 4.69999 6.8113 4.6734C6.88267 4.64682 6.959 4.63377 7.03583 4.63502L8.99918 4.63426L8.99918 3.16526L5.75011 3.16526C5.5966 3.16521 5.4494 3.10824 5.34089 3.00688C5.23238 2.90552 5.17145 2.76808 5.1715 2.62479C5.17156 2.4815 5.23259 2.3441 5.34118 2.24282C5.44977 2.14153 5.59701 2.08466 5.75052 2.08471L8.99959 2.08471L8.99918 1.62063C8.9992 1.4078 8.9543 1.19706 8.86706 1.00042C8.77981 0.80379 8.65192 0.625126 8.49069 0.474633C8.32946 0.324139 8.13805 0.204765 7.92739 0.123327C7.71673 0.0418887 7.49095 -1.80251e-05 7.26294 5.81604e-09H1.73625C1.50823 -1.80251e-05 1.28245 0.0418887 1.07179 0.123327C0.861131 0.204765 0.669721 0.324139 0.508492 0.474633C0.347263 0.625126 0.219372 0.80379 0.132125 1.00042C0.0448769 1.19706 -1.93109e-05 1.4078 6.23094e-09 1.62063L1.03792e-07 16.3794C-1.92134e-05 16.5922 0.0448772 16.8029 0.132125 16.9996C0.219373 17.1962 0.347264 17.3749 0.508494 17.5254C0.669723 17.6759 0.861131 17.7952 1.07179 17.8767C1.28245 17.9581 1.50823 18 1.73625 18H7.26294C7.49095 18 7.71673 17.9581 7.92739 17.8767C8.13805 17.7952 8.32946 17.6759 8.49069 17.5254C8.65192 17.3749 8.77981 17.1962 8.86706 16.9996C8.9543 16.8029 8.9992 16.5922 8.99918 16.3794Z" fill="#23E5DC"/>
</svg>
