<svg width="22" height="20" viewBox="0 0 22 20" fill="none" xmlns="http://www.w3.org/2000/svg">
<path d="M5.85884 20C4.69967 19.9993 3.56671 19.6539 2.60317 19.0072C1.63963 18.3606 0.888773 17.4418 0.445516 16.367C0.00225812 15.2922 -0.113502 14.1097 0.112869 12.9689C0.33924 11.8281 0.897579 10.7803 1.71731 9.95784L10.0072 1.63924C10.1904 1.45528 10.4389 1.35188 10.6981 1.35179C10.9573 1.35169 11.2059 1.45492 11.3892 1.63875C11.5725 1.82258 11.6756 2.07196 11.6756 2.33203C11.6757 2.59209 11.5729 2.84155 11.3897 3.02551L3.09586 11.3441C2.73296 11.7083 2.44509 12.1406 2.24869 12.6164C2.05229 13.0922 1.9512 13.6021 1.9512 14.1171C1.9512 14.6321 2.05229 15.1421 2.24869 15.6179C2.44509 16.0937 2.73296 16.526 3.09586 16.8902C3.45877 17.2543 3.8896 17.5432 4.36375 17.7403C4.83791 17.9374 5.34611 18.0388 5.85933 18.0388C6.37255 18.0388 6.88075 17.9374 7.35491 17.7403C7.82906 17.5432 8.25989 17.2543 8.62279 16.8902L19.3308 6.14511C19.5576 5.91748 19.7376 5.64725 19.8603 5.34985C19.9831 5.05244 20.0463 4.73369 20.0463 4.41178C20.0463 4.08987 19.9831 3.77111 19.8603 3.47371C19.7376 3.1763 19.5576 2.90607 19.3308 2.67845C19.104 2.45083 18.8347 2.27027 18.5383 2.14708C18.2419 2.02389 17.9242 1.96048 17.6034 1.96048C16.9556 1.96048 16.3342 2.21874 15.8761 2.67845L7.24033 11.3441C7.10367 11.4813 7.01064 11.656 6.97299 11.8463C6.93534 12.0365 6.95477 12.2337 7.02882 12.4129C7.10287 12.592 7.22822 12.7451 7.389 12.8528C7.54977 12.9604 7.73876 13.0178 7.93205 13.0176C8.06033 13.0181 8.18743 12.9931 8.30599 12.9439C8.42456 12.8948 8.53224 12.8225 8.62279 12.7314L14.1497 7.1853C14.2398 7.09166 14.3477 7.01698 14.4669 6.96559C14.5861 6.91421 14.7143 6.88717 14.844 6.88604C14.9737 6.8849 15.1024 6.90971 15.2224 6.95901C15.3425 7.0083 15.4516 7.0811 15.5433 7.17315C15.6351 7.2652 15.7076 7.37466 15.7567 7.49515C15.8059 7.61564 15.8306 7.74473 15.8294 7.87491C15.8283 8.00508 15.8014 8.13373 15.7502 8.25334C15.699 8.37295 15.6245 8.48113 15.5312 8.57157L10.0043 14.1176C9.45316 14.6619 8.71006 14.9655 7.93685 14.9624C7.16363 14.9594 6.42295 14.6498 5.87613 14.1013C5.32932 13.5527 5.02068 12.8095 5.01744 12.0336C5.0142 11.2577 5.31663 10.512 5.85884 9.95882L14.4946 1.29218C15.3191 0.464811 16.4374 0 17.6034 0C18.7695 0 19.8878 0.464811 20.7123 1.29218C21.5368 2.11955 22 3.2417 22 4.41178C22 5.58186 21.5368 6.70401 20.7123 7.53138L10.0043 18.2764C9.4614 18.8248 8.81542 19.2595 8.10381 19.5554C7.39219 19.8512 6.62911 20.0024 5.85884 20Z" fill="white"/>
<path d="M5.85884 19.7549C4.74758 19.7552 3.6612 19.4247 2.73716 18.8053C1.81311 18.1859 1.09294 17.3054 0.66776 16.2751C0.242582 15.2448 0.131509 14.1112 0.348596 13.0176C0.565682 11.9239 1.10117 10.9195 1.88731 10.1314L10.1772 1.81179C10.3147 1.67385 10.5011 1.59636 10.6955 1.59636C10.8899 1.59636 11.0764 1.67385 11.2138 1.81179C11.3513 1.94972 11.4285 2.13681 11.4285 2.33188C11.4285 2.52696 11.3513 2.71404 11.2138 2.85198L2.92293 11.1706C2.52155 11.5539 2.20067 12.0139 1.97921 12.5236C1.75775 13.0332 1.64018 13.5822 1.63343 14.1382C1.62668 14.6942 1.73089 15.2459 1.93991 15.7608C2.14894 16.2757 2.45855 16.7434 2.85052 17.1364C3.24248 17.5294 3.70886 17.8397 4.22218 18.049C4.73551 18.2584 5.28539 18.3625 5.83943 18.3552C6.39347 18.348 6.94047 18.2296 7.44819 18.0069C7.95591 17.7843 8.41409 17.4619 8.79572 17.0588L19.5037 6.31373C19.9944 5.80527 20.2663 5.12362 20.2606 4.41585C20.2549 3.70807 19.9722 3.03089 19.4735 2.53039C18.9747 2.0299 18.2998 1.74622 17.5945 1.74053C16.8892 1.73485 16.2099 2.00763 15.7032 2.50002L7.06838 11.1706C6.95496 11.2844 6.86499 11.4195 6.8036 11.5682C6.74222 11.7169 6.71063 11.8763 6.71063 12.0372C6.71063 12.1982 6.74222 12.3576 6.8036 12.5063C6.86499 12.655 6.95496 12.7901 7.06838 12.9039C7.18179 13.0177 7.31644 13.108 7.46463 13.1696C7.61282 13.2312 7.77165 13.2629 7.93205 13.2629C8.09245 13.2629 8.25128 13.2312 8.39947 13.1696C8.54766 13.108 8.6823 13.0177 8.79572 12.9039L14.3207 7.35883C14.3883 7.28857 14.4691 7.23252 14.5585 7.19394C14.6479 7.15536 14.744 7.13503 14.8413 7.13414C14.9386 7.13324 15.0351 7.1518 15.1251 7.18873C15.2152 7.22566 15.2971 7.28022 15.3659 7.34922C15.4347 7.41823 15.4892 7.5003 15.5261 7.59065C15.5629 7.68099 15.5815 7.77781 15.5807 7.87544C15.5799 7.97307 15.5598 8.06957 15.5214 8.15929C15.483 8.24902 15.4273 8.33018 15.3573 8.39804L9.83135 13.9441C9.58187 14.1945 9.28567 14.3932 8.95968 14.5287C8.63369 14.6643 8.28429 14.734 7.93142 14.7341C7.57855 14.7341 7.22913 14.6644 6.9031 14.529C6.57707 14.3935 6.28083 14.1949 6.03128 13.9446C5.78173 13.6942 5.58377 13.397 5.44869 13.0699C5.31361 12.7428 5.24406 12.3922 5.24402 12.0381C5.24393 11.323 5.52694 10.6371 6.03079 10.1314L14.6675 1.47061C15.4462 0.689135 16.5023 0.250054 17.6036 0.249962C18.7049 0.24987 19.7611 0.688774 20.5398 1.47012C21.3186 2.25147 21.7562 3.31125 21.7563 4.41633C21.7564 5.52142 21.319 6.58128 20.5403 7.36275L9.83233 18.1039C9.31165 18.629 8.69238 19.0453 8.01034 19.3287C7.3283 19.6121 6.59703 19.7569 5.85884 19.7549Z" fill="white"/>
</svg>
