<svg width="30" height="26" viewBox="0 0 30 26" fill="#fffff" xmlns="http://www.w3.org/2000/svg">
<path d="M9.66564 17.3336H9.66705C9.66822 17.3336 9.66939 17.3333 9.6705 17.3333H25.6055C25.7965 17.3333 25.9823 17.2719 26.1347 17.1585C26.2872 17.0451 26.3981 16.8858 26.4505 16.7048L29.9662 4.57144C30.0035 4.44248 30.01 4.30673 29.9852 4.17487C29.9603 4.04301 29.9048 3.91864 29.8229 3.81154C29.741 3.70443 29.6349 3.61754 29.5132 3.55769C29.3914 3.49785 29.2572 3.46669 29.1211 3.46667H7.6387L7.01046 0.678658C6.96704 0.486159 6.85836 0.314011 6.70236 0.190628C6.54635 0.0672449 6.35234 2.66337e-06 6.15235 0H0.878908C0.393458 0 0 0.387978 0 0.866667C0 1.34536 0.393458 1.73333 0.878908 1.73333H5.44741C5.55862 2.22733 8.45398 15.0753 8.62062 15.8144C7.68657 16.2148 7.03126 17.1332 7.03126 18.2C7.03126 19.6336 8.21415 20.8 9.66798 20.8H25.6055C26.091 20.8 26.4844 20.412 26.4844 19.9333C26.4844 19.4546 26.091 19.0667 25.6055 19.0667H9.66798C9.18341 19.0667 8.78908 18.6778 8.78908 18.2C8.78908 17.7229 9.18207 17.3347 9.66564 17.3336ZM27.9559 5.2L24.9425 15.6H10.373L8.02923 5.2H27.9559ZM8.78908 23.4C8.78908 24.8336 9.97197 26 11.4258 26C12.8796 26 14.0625 24.8336 14.0625 23.4C14.0625 21.9664 12.8796 20.8 11.4258 20.8C9.97197 20.8 8.78908 21.9664 8.78908 23.4ZM11.4258 22.5333C11.9104 22.5333 12.3047 22.9222 12.3047 23.4C12.3047 23.8778 11.9104 24.2667 11.4258 24.2667C10.9412 24.2667 10.5469 23.8778 10.5469 23.4C10.5469 22.9222 10.9412 22.5333 11.4258 22.5333ZM21.211 23.4C21.211 24.8336 22.3939 26 23.8477 26C25.3015 26 26.4844 24.8336 26.4844 23.4C26.4844 21.9664 25.3015 20.8 23.8477 20.8C22.3939 20.8 21.211 21.9664 21.211 23.4ZM23.8477 22.5333C24.3323 22.5333 24.7266 22.9222 24.7266 23.4C24.7266 23.8778 24.3323 24.2667 23.8477 24.2667C23.3631 24.2667 22.9688 23.8778 22.9688 23.4C22.9688 22.9222 23.3631 22.5333 23.8477 22.5333Z" fill="#ffffff"/>
</svg>
