<svg width="24" height="24" viewBox="0 0 24 24" fill="none" xmlns="http://www.w3.org/2000/svg">
<path d="M4.13793 2.48276H6.62069C6.94992 2.48276 7.26567 2.35197 7.49848 2.11917C7.73128 1.88636 7.86207 1.57061 7.86207 1.24138C7.86207 0.912145 7.73128 0.596395 7.49848 0.363592C7.26567 0.130788 6.94992 0 6.62069 0H1.24138C0.912145 0 0.596395 0.130788 0.363592 0.363592C0.130788 0.596395 0 0.912145 0 1.24138V6.62069C0 6.94992 0.130788 7.26567 0.363592 7.49848C0.596395 7.73128 0.912145 7.86207 1.24138 7.86207C1.57061 7.86207 1.88636 7.73128 2.11917 7.49848C2.35197 7.26567 2.48276 6.94992 2.48276 6.62069V4.13793L8.48276 10.1379C8.59144 10.2466 8.72046 10.3328 8.86246 10.3916C9.00445 10.4505 9.15665 10.4807 9.31034 10.4807C9.46404 10.4807 9.61624 10.4505 9.75823 10.3916C9.90023 10.3328 10.0293 10.2466 10.1379 10.1379C10.2466 10.0293 10.3328 9.90023 10.3916 9.75823C10.4505 9.61624 10.4807 9.46404 10.4807 9.31034C10.4807 9.15665 10.4505 9.00445 10.3916 8.86246C10.3328 8.72046 10.2466 8.59144 10.1379 8.48276L4.13793 2.48276ZM10.1379 13.8621C10.0293 13.7534 9.90023 13.6672 9.75823 13.6084C9.61624 13.5495 9.46404 13.5193 9.31034 13.5193C9.15665 13.5193 9.00445 13.5495 8.86246 13.6084C8.72046 13.6672 8.59144 13.7534 8.48276 13.8621L2.48276 19.8621V17.3793C2.48276 17.0501 2.35197 16.7343 2.11917 16.5015C1.88636 16.2687 1.57061 16.1379 1.24138 16.1379C0.912145 16.1379 0.596395 16.2687 0.363592 16.5015C0.130788 16.7343 0 17.0501 0 17.3793V22.7586C0 23.0879 0.130788 23.4036 0.363592 23.6364C0.596395 23.8692 0.912145 24 1.24138 24H6.62069C6.94992 24 7.26567 23.8692 7.49848 23.6364C7.73128 23.4036 7.86207 23.0879 7.86207 22.7586C7.86207 22.4294 7.73128 22.1136 7.49848 21.8808C7.26567 21.648 6.94992 21.5172 6.62069 21.5172H4.13793L10.1379 15.5172C10.2466 15.4086 10.3328 15.2795 10.3916 15.1375C10.4505 14.9955 10.4807 14.8434 10.4807 14.6897C10.4807 14.536 10.4505 14.3838 10.3916 14.2418C10.3328 14.0998 10.2466 13.9707 10.1379 13.8621ZM22.7586 0H17.3793C17.0501 0 16.7343 0.130788 16.5015 0.363592C16.2687 0.596395 16.1379 0.912145 16.1379 1.24138C16.1379 1.57061 16.2687 1.88636 16.5015 2.11917C16.7343 2.35197 17.0501 2.48276 17.3793 2.48276H19.8621L13.8621 8.48276C13.7534 8.59144 13.6672 8.72046 13.6084 8.86246C13.5495 9.00445 13.5193 9.15665 13.5193 9.31034C13.5193 9.46404 13.5495 9.61624 13.6084 9.75823C13.6672 9.90023 13.7534 10.0293 13.8621 10.1379C13.9707 10.2466 14.0998 10.3328 14.2418 10.3916C14.3838 10.4505 14.536 10.4807 14.6897 10.4807C14.8434 10.4807 14.9955 10.4505 15.1375 10.3916C15.2795 10.3328 15.4086 10.2466 15.5172 10.1379L21.5172 4.13793V6.62069C21.5172 6.94992 21.648 7.26567 21.8808 7.49848C22.1136 7.73128 22.4294 7.86207 22.7586 7.86207C23.0879 7.86207 23.4036 7.73128 23.6364 7.49848C23.8692 7.26567 24 6.94992 24 6.62069V1.24138C24 0.912145 23.8692 0.596395 23.6364 0.363592C23.4036 0.130788 23.0879 0 22.7586 0ZM22.7586 16.1379C22.4294 16.1379 22.1136 16.2687 21.8808 16.5015C21.648 16.7343 21.5172 17.0501 21.5172 17.3793V19.8621L15.5172 13.8621C15.4086 13.7534 15.2795 13.6672 15.1375 13.6084C14.9955 13.5495 14.8434 13.5193 14.6897 13.5193C14.536 13.5193 14.3838 13.5495 14.2418 13.6084C14.0998 13.6672 13.9707 13.7534 13.8621 13.8621C13.7534 13.9707 13.6672 14.0998 13.6084 14.2418C13.5495 14.3838 13.5193 14.536 13.5193 14.6897C13.5193 14.8434 13.5495 14.9955 13.6084 15.1375C13.6672 15.2795 13.7534 15.4086 13.8621 15.5172L19.8621 21.5172H17.3793C17.0501 21.5172 16.7343 21.648 16.5015 21.8808C16.2687 22.1136 16.1379 22.4294 16.1379 22.7586C16.1379 23.0879 16.2687 23.4036 16.5015 23.6364C16.7343 23.8692 17.0501 24 17.3793 24H22.7586C23.0879 24 23.4036 23.8692 23.6364 23.6364C23.8692 23.4036 24 23.0879 24 22.7586V17.3793C24 17.0501 23.8692 16.7343 23.6364 16.5015C23.4036 16.2687 23.0879 16.1379 22.7586 16.1379Z" fill="white"/>
</svg>
