<svg width="36" height="36" viewBox="0 0 36 36" fill="none" xmlns="http://www.w3.org/2000/svg">
<path d="M3.98361 2.16226L13.5389 0.100945C14.8569 -0.183651 16.2821 0.142368 17.3343 0.96725C18.2267 1.66578 18.8117 2.67122 18.9693 3.77745H24.4028C25.3369 3.77745 26.2188 4.11152 26.8862 4.71766C27.5689 5.33722 27.9607 6.20203 27.9607 7.09039V9.79629C27.9607 10.1124 27.8321 10.4156 27.6032 10.6392C27.3743 10.8627 27.0638 10.9883 26.7401 10.9883C26.4163 10.9883 26.1058 10.8627 25.8769 10.6392C25.648 10.4156 25.5194 10.1124 25.5194 9.79629V7.09039C25.5194 6.85914 25.4147 6.63682 25.224 6.46368C25.0128 6.27147 24.7132 6.1615 24.4031 6.1615H19.0194V29.8772H24.4028C24.7135 29.8772 25.0128 29.7669 25.2246 29.5747C25.4144 29.4024 25.5191 29.1801 25.5191 28.9483V26.2427C25.5191 25.9265 25.6477 25.6233 25.8766 25.3998C26.1055 25.1762 26.416 25.0506 26.7398 25.0506C27.0635 25.0506 27.374 25.1762 27.6029 25.3998C27.8318 25.6233 27.9604 25.9265 27.9604 26.2427V28.9483C27.9604 29.8369 27.5689 30.702 26.8859 31.321C26.2182 31.9271 25.3363 32.2609 24.4025 32.2609H18.9617C18.7958 33.3513 18.2143 34.3403 17.3337 35.03C16.5329 35.6569 15.5375 35.999 14.5112 36C14.1847 36 13.8572 35.9651 13.5383 35.8963L3.98331 33.8353C1.63781 33.3293 -1.14441e-05 31.338 -1.14441e-05 28.9927V7.00486C0.000904083 4.65925 1.63873 2.66797 3.98361 2.16226ZM2.44222 28.9933C2.43921 29.5805 2.64307 30.1509 3.01963 30.6087C3.39618 31.0666 3.92251 31.384 4.51033 31.5079L14.0656 33.5692C14.3677 33.6326 14.6803 33.63 14.9811 33.5613C15.282 33.4927 15.5635 33.3598 15.8054 33.1722C16.0471 32.9834 16.2421 32.7439 16.3758 32.4714C16.5096 32.1988 16.5787 31.9004 16.5781 31.5981V4.39999C16.5781 3.7849 16.2964 3.21124 15.8054 2.82592C15.4382 2.53868 14.982 2.38189 14.5115 2.38129C14.362 2.38129 14.2118 2.39738 14.0656 2.42897L4.51033 4.49028C3.92251 4.61411 3.39618 4.93157 3.01963 5.38942C2.64307 5.84726 2.43921 6.41764 2.44222 7.00486V28.9933Z" fill="white"/>
<path d="M12.3521 15.2716C12.6759 15.2716 12.9864 15.3972 13.2153 15.6207C13.4442 15.8442 13.5728 16.1474 13.5728 16.4636V19.6681C13.5728 19.9842 13.4442 20.2874 13.2153 20.5109C12.9864 20.7345 12.6759 20.8601 12.3521 20.8601C12.0284 20.8601 11.7179 20.7345 11.489 20.5109C11.2601 20.2874 11.1315 19.9842 11.1315 19.6681V16.4636C11.1315 16.1474 11.2601 15.8442 11.489 15.6207C11.7179 15.3972 12.0284 15.2716 12.3521 15.2716Z" fill="white"/>
<path d="M29.2751 21.8373C29.3365 21.6927 29.4265 21.5613 29.5399 21.4507L31.8326 19.2118H22.2694C21.9456 19.2118 21.6351 19.0862 21.4062 18.8626C21.1773 18.6391 21.0487 18.3359 21.0487 18.0198C21.0487 17.7036 21.1773 17.4004 21.4062 17.1769C21.6351 16.9533 21.9456 16.8277 22.2694 16.8277H31.8326L29.5399 14.5888C29.4245 14.4786 29.3326 14.3471 29.2695 14.202C29.2065 14.0568 29.1735 13.9009 29.1726 13.7432C29.1717 13.5856 29.2028 13.4293 29.2642 13.2835C29.3255 13.1376 29.4159 13.0051 29.5301 12.8936C29.6442 12.7822 29.7799 12.6939 29.9292 12.6339C30.0785 12.574 30.2385 12.5436 30.4 12.5445C30.5614 12.5453 30.7211 12.5775 30.8697 12.639C31.0184 12.7005 31.153 12.7903 31.2659 12.903L35.6426 17.1767C35.8715 17.4003 36 17.7035 36 18.0196C36 18.3357 35.8715 18.6389 35.6426 18.8625L31.2659 23.1362C31.0276 23.369 30.7151 23.4855 30.4029 23.4855C30.0907 23.4855 29.7779 23.369 29.5399 23.1362C29.4265 23.0256 29.3365 22.8942 29.2751 22.7496C29.2137 22.605 29.1821 22.45 29.1821 22.2935C29.1821 22.1369 29.2137 21.9819 29.2751 21.8373Z" fill="white"/>
</svg>
