<svg width="36" height="36" viewBox="0 0 36 36" fill="none" xmlns="http://www.w3.org/2000/svg">
<path d="M32.0164 2.16226L22.4611 0.100945C21.143 -0.183651 19.7179 0.142368 18.6657 0.96725C17.7733 1.66578 17.1883 2.67122 17.0306 3.77745H11.5972C10.6631 3.77745 9.78115 4.11152 9.11375 4.71766C8.4311 5.33722 8.03926 6.20203 8.03926 7.09039V9.79629C8.03926 10.1124 8.16787 10.4156 8.39679 10.6392C8.62571 10.8627 8.93618 10.9883 9.25992 10.9883C9.58366 10.9883 9.89414 10.8627 10.1231 10.6392C10.352 10.4156 10.4806 10.1124 10.4806 9.79629V7.09039C10.4806 6.85914 10.5853 6.63682 10.776 6.46368C10.9872 6.27147 11.2868 6.1615 11.5969 6.1615H16.9806V29.8772H11.5972C11.2865 29.8772 10.9872 29.7669 10.7754 29.5747C10.5856 29.4024 10.4809 29.1801 10.4809 28.9483V26.2427C10.4809 25.9265 10.3523 25.6233 10.1234 25.3998C9.89445 25.1762 9.58397 25.0506 9.26023 25.0506C8.93649 25.0506 8.62601 25.1762 8.39709 25.3998C8.16817 25.6233 8.03957 25.9265 8.03957 26.2427V28.9483C8.03957 29.8369 8.4311 30.702 9.11405 31.321C9.78176 31.9271 10.6637 32.2609 11.5975 32.2609H17.0383C17.2042 33.3513 17.7857 34.3403 18.6663 35.03C19.4671 35.6569 20.4625 35.999 21.4888 36C21.8153 36 22.1428 35.9651 22.4617 35.8963L32.0167 33.8353C34.3622 33.3293 36 31.338 36 28.9927V7.00486C35.9991 4.65925 34.3613 2.66797 32.0164 2.16226ZM33.5578 28.9933C33.5608 29.5805 33.3569 30.1509 32.9804 30.6087C32.6038 31.0666 32.0775 31.384 31.4897 31.5079L21.9343 33.5692C21.6323 33.6326 21.3197 33.63 21.0189 33.5613C20.718 33.4927 20.4365 33.3598 20.1946 33.1722C19.9529 32.9834 19.7579 32.7439 19.6241 32.4714C19.4904 32.1988 19.4212 31.9004 19.4219 31.5981V4.39999C19.4219 3.7849 19.7036 3.21124 20.1946 2.82592C20.5618 2.53868 21.018 2.38189 21.4885 2.38129C21.638 2.38129 21.7882 2.39738 21.9343 2.42897L31.4897 4.49028C32.0775 4.61411 32.6038 4.93157 32.9804 5.38942C33.3569 5.84726 33.5608 6.41764 33.5578 7.00486V28.9933Z" fill="white"/>
<path d="M23.6478 15.2716C23.3241 15.2716 23.0136 15.3972 22.7847 15.6207C22.5558 15.8442 22.4272 16.1474 22.4272 16.4636V19.6681C22.4272 19.9842 22.5558 20.2874 22.7847 20.5109C23.0136 20.7345 23.3241 20.8601 23.6478 20.8601C23.9716 20.8601 24.2821 20.7345 24.511 20.5109C24.7399 20.2874 24.8685 19.9842 24.8685 19.6681V16.4636C24.8685 16.1474 24.7399 15.8442 24.511 15.6207C24.2821 15.3972 23.9716 15.2716 23.6478 15.2716ZM8.49121 21.4507C8.37779 21.5614 8.28782 21.6927 8.22643 21.8373C8.16504 21.9819 8.13344 22.1369 8.13344 22.2935C8.13344 22.45 8.16504 22.605 8.22643 22.7496C8.28782 22.8943 8.37779 23.0256 8.49121 23.1363C8.72924 23.369 9.04204 23.4855 9.35422 23.4855C9.6664 23.4855 9.97889 23.369 10.2172 23.1363L14.5939 18.8625C14.8228 18.639 14.9513 18.3358 14.9513 18.0196C14.9513 17.7035 14.8228 17.4003 14.5939 17.1767L10.2172 12.903C10.1043 12.7903 9.96968 12.7006 9.82104 12.639C9.67239 12.5775 9.51273 12.5453 9.35128 12.5445C9.18984 12.5436 9.02982 12.574 8.88049 12.634C8.73116 12.6939 8.5955 12.7822 8.48135 12.8937C8.3672 13.0052 8.27683 13.1377 8.21547 13.2835C8.15412 13.4293 8.123 13.5856 8.12392 13.7433C8.12484 13.9009 8.15777 14.0568 8.22082 14.202C8.28387 14.3471 8.37577 14.4786 8.49121 14.5888L10.7839 16.8278H1.22066C0.896921 16.8278 0.586441 16.9533 0.357523 17.1769C0.128605 17.4004 0 17.7036 0 18.0198C0 18.3359 0.128605 18.6391 0.357523 18.8627C0.586441 19.0862 0.896921 19.2118 1.22066 19.2118H10.7839L8.49121 21.4507Z" fill="white"/>
</svg>
