<svg width="22" height="26" viewBox="0 0 22 26" fill="none" xmlns="http://www.w3.org/2000/svg">
<path d="M2.23388 26C1.89482 25.9987 1.56034 25.9207 1.25499 25.7717C0.880697 25.594 0.564041 25.3125 0.341869 24.96C0.119696 24.6075 0.00114196 24.1984 0 23.7805V2.21964C0.00163531 1.92543 0.060808 1.63445 0.174115 1.36343C0.287422 1.09241 0.452629 0.846702 0.660233 0.640435C0.867837 0.434167 1.11374 0.271411 1.38381 0.161527C1.65387 0.051642 1.94277 -0.00320347 2.23388 0.00014454H19.8038C20.3852 0.00347392 20.9419 0.238382 21.3531 0.6539C21.7643 1.06942 21.9967 1.63202 22 2.21964V23.7805C21.9918 24.1821 21.876 24.574 21.6648 24.9143C21.4535 25.2547 21.1549 25.5307 20.8006 25.7129C20.4464 25.8952 20.0498 25.9769 19.6532 25.9492C19.2567 25.9216 18.8749 25.7857 18.5488 25.5561L11.2698 20.0391C11.2164 19.9958 11.15 19.9723 11.0816 19.9723C11.0131 19.9723 10.9467 19.9958 10.8933 20.0391L3.55163 25.5561C3.17063 25.8426 2.70879 25.9982 2.23388 26ZM2.23388 1.90257C2.15067 1.90257 2.07087 1.93598 2.01203 1.99544C1.95319 2.0549 1.92014 2.13555 1.92014 2.21964V23.7805C1.9197 23.8392 1.93605 23.8967 1.96722 23.9462C1.99839 23.9957 2.04305 24.0351 2.09584 24.0595C2.14388 24.0928 2.20075 24.1106 2.25898 24.1106C2.31722 24.1106 2.37409 24.0928 2.42213 24.0595L9.76383 18.5171C10.1456 18.2328 10.6074 18.0795 11.0816 18.0795C11.5558 18.0795 12.0176 18.2328 12.3993 18.5171L19.6783 24.0342C19.7263 24.0674 19.7832 24.0852 19.8414 24.0852C19.8997 24.0852 19.9565 24.0674 20.0046 24.0342C20.0573 24.0097 20.102 23.9704 20.1332 23.9209C20.1644 23.8714 20.1807 23.8138 20.1803 23.7551V2.21964C20.1812 2.17209 20.1716 2.12493 20.152 2.08165C20.1325 2.03837 20.1036 2.00009 20.0674 1.96964C20.0313 1.93919 19.9888 1.91735 19.9432 1.90574C19.8975 1.89413 19.8499 1.89305 19.8038 1.90257H2.23388Z" fill="#23E5DC"/>
</svg>
