<svg width="20" height="22" viewBox="0 0 20 22" fill="none" xmlns="http://www.w3.org/2000/svg">
<path d="M16.2388 14.7982C15.1378 14.7982 14.1459 15.2534 13.4575 15.9775L7.26519 12.3057C7.4352 11.8896 7.52236 11.4468 7.52218 11C7.52239 10.5532 7.43523 10.1104 7.26519 9.69431L13.4575 6.02233C14.1459 6.74644 15.1378 7.20182 16.2388 7.20182C18.3128 7.20182 20 5.58645 20 3.60082C20 1.6152 18.3128 0 16.2388 0C14.1649 0 12.4776 1.61537 12.4776 3.601C12.4776 4.04774 12.5647 4.49057 12.7346 4.90664L6.54253 8.5785C5.85406 7.85439 4.86216 7.399 3.7612 7.399C1.68723 7.399 0 9.01454 0 11C0 12.9856 1.68723 14.601 3.7612 14.601C4.86212 14.601 5.85411 14.1458 6.54253 13.4215L12.7347 17.0934C12.5647 17.5095 12.4776 17.9524 12.4776 18.3992C12.4776 20.3846 14.1648 22 16.2388 22C18.3128 22 20 20.3846 20 18.3992C20 16.4135 18.3128 14.7982 16.2388 14.7982ZM13.8491 3.601C13.8491 2.33943 14.9212 1.31308 16.2388 1.31308C17.5564 1.31308 18.6285 2.33943 18.6285 3.601C18.6285 4.86256 17.5565 5.88891 16.2388 5.88891C14.9211 5.88891 13.8491 4.86252 13.8491 3.601ZM3.7612 13.2879C2.44333 13.2879 1.37132 12.2615 1.37132 11C1.37132 9.73848 2.44333 8.71209 3.7612 8.71209C5.07889 8.71209 6.15072 9.73848 6.15072 11C6.15072 12.2615 5.07884 13.2879 3.7612 13.2879ZM13.8491 18.399C13.8491 17.1375 14.9212 16.1111 16.2388 16.1111C17.5564 16.1111 18.6285 17.1375 18.6285 18.399C18.6285 19.6606 17.5565 20.6869 16.2388 20.6869C14.9211 20.6869 13.8491 19.6606 13.8491 18.399V18.399Z" fill="#00ACA4"/>
</svg>
