<svg width="25" height="26" viewBox="0 0 25 26" fill="none" xmlns="http://www.w3.org/2000/svg">
<path d="M9.87918 24.7113L10.3331 24.2574L8.41351 22.3393C8.33925 22.265 8.27938 22.1778 8.23731 22.0826C8.19525 21.9874 8.17182 21.8861 8.16835 21.7846C8.16489 21.683 8.18147 21.5831 8.21714 21.4907C8.2528 21.3982 8.30686 21.3149 8.37623 21.2456C8.4456 21.1763 8.52891 21.1223 8.62142 21.0867C8.71393 21.0511 8.81381 21.0346 8.91538 21.0381C9.01694 21.0416 9.11819 21.0651 9.21335 21.1073C9.3085 21.1494 9.3957 21.2093 9.46997 21.2837L11.3888 23.2017L12.8252 21.7653L9.64981 18.5899C9.57351 18.516 9.51166 18.4287 9.46789 18.3329C9.42412 18.2372 9.39929 18.135 9.39486 18.0323C9.39044 17.9296 9.40649 17.8285 9.4421 17.7348C9.4777 17.6411 9.53215 17.5567 9.60225 17.4866C9.67235 17.4165 9.7567 17.3621 9.85039 17.3265C9.94407 17.2909 10.0452 17.2748 10.1479 17.2792C10.2506 17.2837 10.3528 17.3085 10.4485 17.3523C10.5443 17.396 10.6316 17.4579 10.7055 17.5342L13.8809 20.7096L15.3173 19.2732L13.3977 17.3535C13.3214 17.2796 13.2597 17.1922 13.216 17.0965C13.1722 17.0007 13.1475 16.8985 13.1431 16.7958C13.1388 16.6931 13.1549 16.592 13.1906 16.4983C13.2263 16.4047 13.2808 16.3203 13.3509 16.2503C13.4211 16.1803 13.5055 16.1259 13.5992 16.0903C13.6929 16.0548 13.7941 16.0388 13.8968 16.0433C13.9995 16.0478 14.1016 16.0727 14.1973 16.1165C14.293 16.1604 14.3804 16.2223 14.4542 16.2986L16.3738 18.2183L17.8095 16.781L14.6341 13.6056C14.5577 13.5318 14.4959 13.4444 14.4521 13.3487C14.4084 13.2529 14.3835 13.1508 14.3791 13.0481C14.3747 12.9454 14.3907 12.8442 14.4263 12.7505C14.4619 12.6568 14.5164 12.5725 14.5865 12.5024C14.6566 12.4323 14.7409 12.3778 14.8346 12.3422C14.9283 12.3066 15.0295 12.2906 15.1322 12.295C15.2349 12.2994 15.3371 12.3243 15.4328 12.368C15.5285 12.4118 15.6159 12.4736 15.6897 12.55L18.8651 15.7254L20.3024 14.2889L18.3827 12.3701C18.3064 12.2962 18.2446 12.2089 18.2008 12.1131C18.157 12.0174 18.1322 11.9152 18.1278 11.8125C18.1234 11.7098 18.1394 11.6087 18.175 11.515C18.2106 11.4213 18.2651 11.3369 18.3352 11.2668C18.4053 11.1967 18.4896 11.1423 18.5833 11.1067C18.677 11.0711 18.7781 11.055 18.8808 11.0594C18.9835 11.0639 19.0857 11.0887 19.1815 11.1325C19.2772 11.1762 19.3645 11.2381 19.4384 11.3144L21.358 13.2325L22.7937 11.7968L19.6183 8.62139C19.4683 8.47131 19.3801 8.27177 19.3731 8.06666C19.3661 7.86155 19.4409 7.66767 19.581 7.52769C19.7211 7.3877 19.915 7.31306 20.1202 7.3202C20.3253 7.32734 20.5248 7.41566 20.6747 7.56574L23.8502 10.7411L24.3033 10.2872C24.5113 10.0792 24.6734 9.82936 24.7803 9.55191C24.8872 9.27447 24.9369 8.97487 24.9264 8.67021C24.9159 8.36556 24.8455 8.06182 24.7192 7.77634C24.5929 7.49087 24.4132 7.22924 24.1903 7.00642L18.7889 1.60503C18.5661 1.38216 18.3045 1.20246 18.019 1.07616C17.7335 0.949873 17.4298 0.87947 17.1251 0.868978C16.8205 0.858485 16.5209 0.908108 16.2434 1.01501C15.966 1.12192 15.7161 1.28401 15.5081 1.49203L1.08402 15.9162C0.875992 16.1242 0.713899 16.374 0.606995 16.6514C0.50009 16.9289 0.450469 17.2285 0.460962 17.5332C0.471455 17.8378 0.541855 18.1415 0.668146 18.427C0.794438 18.7125 0.974145 18.9741 1.19701 19.1969L6.5984 24.5983C6.82122 24.8212 7.08285 25.0009 7.36832 25.1272C7.6538 25.2535 7.95754 25.3239 8.26219 25.3344C8.56685 25.3449 8.86645 25.2953 9.1439 25.1883C9.42134 25.0814 9.67119 24.9194 9.87918 24.7113Z" fill="white"/>
</svg>
